<mxfile host="65bd71144e">
    <diagram id="MsojlqAO4IF1850HnQTj" name="Page-1">
        <mxGraphModel dx="2502" dy="1269" grid="1" gridSize="10" guides="1" tooltips="1" connect="1" arrows="1" fold="1" page="1" pageScale="1" pageWidth="850" pageHeight="1100" math="0" shadow="0">
            <root>
                <mxCell id="0"/>
                <mxCell id="1" parent="0"/>
                <mxCell id="8" value="" style="edgeStyle=none;html=1;" edge="1" parent="1" source="2" target="7">
                    <mxGeometry relative="1" as="geometry"/>
                </mxCell>
                <object label="not logged in" id="2">
                    <mxCell style="rounded=1;whiteSpace=wrap;html=1;" vertex="1" parent="1">
                        <mxGeometry x="80" y="490" width="120" height="60" as="geometry"/>
                    </mxCell>
                </object>
                <mxCell id="10" value="click to register" style="edgeStyle=none;html=1;" edge="1" parent="1" source="7" target="9">
                    <mxGeometry relative="1" as="geometry"/>
                </mxCell>
                <mxCell id="12" value="click to login" style="edgeStyle=none;html=1;entryX=0;entryY=1;entryDx=0;entryDy=0;exitX=0.5;exitY=1;exitDx=0;exitDy=0;" edge="1" parent="1" source="7" target="11">
                    <mxGeometry relative="1" as="geometry">
                        <mxPoint x="250" y="570" as="sourcePoint"/>
                        <mxPoint x="770" y="595" as="targetPoint"/>
                        <Array as="points">
                            <mxPoint x="510" y="610"/>
                        </Array>
                    </mxGeometry>
                </mxCell>
                <mxCell id="7" value="" style="rhombus;whiteSpace=wrap;html=1;rounded=1;" vertex="1" parent="1">
                    <mxGeometry x="230" y="500" width="40" height="40" as="geometry"/>
                </mxCell>
                <mxCell id="20" value="" style="edgeStyle=none;html=1;" edge="1" parent="1" source="9" target="19">
                    <mxGeometry relative="1" as="geometry"/>
                </mxCell>
                <mxCell id="9" value="sign up" style="whiteSpace=wrap;html=1;rounded=1;" vertex="1" parent="1">
                    <mxGeometry x="440" y="490" width="120" height="60" as="geometry"/>
                </mxCell>
                <mxCell id="30" value="success" style="edgeStyle=none;html=1;" edge="1" parent="1" source="11" target="29">
                    <mxGeometry relative="1" as="geometry"/>
                </mxCell>
                <mxCell id="32" value="fail" style="edgeStyle=none;html=1;entryX=0.75;entryY=1;entryDx=0;entryDy=0;" edge="1" parent="1" source="11" target="11">
                    <mxGeometry relative="1" as="geometry">
                        <mxPoint x="830" y="670" as="targetPoint"/>
                        <Array as="points">
                            <mxPoint x="780" y="640"/>
                        </Array>
                    </mxGeometry>
                </mxCell>
                <mxCell id="11" value="log in" style="whiteSpace=wrap;html=1;rounded=1;" vertex="1" parent="1">
                    <mxGeometry x="770" y="520" width="120" height="60" as="geometry"/>
                </mxCell>
                <mxCell id="16" value="" style="edgeStyle=none;html=1;" edge="1" parent="1" source="15" target="2">
                    <mxGeometry relative="1" as="geometry"/>
                </mxCell>
                <mxCell id="15" value="" style="shape=waypoint;sketch=0;fillStyle=solid;size=6;pointerEvents=1;points=[];fillColor=none;resizable=0;rotatable=0;perimeter=centerPerimeter;snapToPoint=1;" vertex="1" parent="1">
                    <mxGeometry x="20" y="510" width="20" height="20" as="geometry"/>
                </mxCell>
                <mxCell id="22" value="fail" style="edgeStyle=none;html=1;entryX=0.803;entryY=-0.041;entryDx=0;entryDy=0;entryPerimeter=0;" edge="1" parent="1" source="19" target="2">
                    <mxGeometry relative="1" as="geometry">
                        <mxPoint x="550" y="420" as="targetPoint"/>
                        <Array as="points">
                            <mxPoint x="610" y="450"/>
                        </Array>
                    </mxGeometry>
                </mxCell>
                <mxCell id="24" value="success" style="edgeStyle=none;html=1;entryX=0;entryY=0.25;entryDx=0;entryDy=0;exitX=0.646;exitY=0.925;exitDx=0;exitDy=0;exitPerimeter=0;" edge="1" parent="1" source="19" target="11">
                    <mxGeometry relative="1" as="geometry">
                        <mxPoint x="629.9973684210529" y="520.0026315789473" as="sourcePoint"/>
                        <mxPoint x="881.05" y="533.95" as="targetPoint"/>
                        <Array as="points"/>
                    </mxGeometry>
                </mxCell>
                <mxCell id="19" value="" style="rhombus;whiteSpace=wrap;html=1;rounded=1;" vertex="1" parent="1">
                    <mxGeometry x="590" y="460" width="40" height="40" as="geometry"/>
                </mxCell>
                <mxCell id="34" value="click match" style="edgeStyle=none;html=1;entryX=0;entryY=0.5;entryDx=0;entryDy=0;" edge="1" parent="1" source="29" target="37">
                    <mxGeometry relative="1" as="geometry">
                        <mxPoint x="1720" y="541.25" as="targetPoint"/>
                    </mxGeometry>
                </mxCell>
                <mxCell id="42" value="quit" style="edgeStyle=none;html=1;entryX=-0.143;entryY=1.264;entryDx=0;entryDy=0;entryPerimeter=0;" edge="1" parent="1" source="29" target="39">
                    <mxGeometry relative="1" as="geometry">
                        <mxPoint x="2430" y="920" as="targetPoint"/>
                        <Array as="points">
                            <mxPoint x="1280" y="990"/>
                            <mxPoint x="2230" y="990"/>
                            <mxPoint x="2400" y="990"/>
                        </Array>
                    </mxGeometry>
                </mxCell>
                <mxCell id="29" value="" style="whiteSpace=wrap;html=1;rounded=1;" vertex="1" parent="1">
                    <mxGeometry x="960" y="180" width="660" height="540" as="geometry"/>
                </mxCell>
                <mxCell id="40" value="quit" style="edgeStyle=none;html=1;" edge="1" parent="1" source="37" target="39">
                    <mxGeometry relative="1" as="geometry"/>
                </mxCell>
                <mxCell id="37" value="" style="whiteSpace=wrap;html=1;rounded=1;" vertex="1" parent="1">
                    <mxGeometry x="1920" y="300" width="420" height="490" as="geometry"/>
                </mxCell>
                <mxCell id="39" value="" style="shape=waypoint;sketch=0;size=6;pointerEvents=1;points=[];fillColor=default;resizable=0;rotatable=0;perimeter=centerPerimeter;snapToPoint=1;rounded=1;" vertex="1" parent="1">
                    <mxGeometry x="2430" y="540" width="20" height="20" as="geometry"/>
                </mxCell>
                <mxCell id="45" value="select anyone" style="edgeStyle=none;html=1;" edge="1" parent="1" source="43" target="44">
                    <mxGeometry relative="1" as="geometry"/>
                </mxCell>
                <mxCell id="43" value="marching information page" style="rounded=1;whiteSpace=wrap;html=1;" vertex="1" parent="1">
                    <mxGeometry x="1950" y="350" width="120" height="60" as="geometry"/>
                </mxCell>
                <mxCell id="47" value="message" style="edgeStyle=none;html=1;" edge="1" parent="1" source="44" target="46">
                    <mxGeometry relative="1" as="geometry"/>
                </mxCell>
                <mxCell id="44" value="the man&#39;s page" style="whiteSpace=wrap;html=1;rounded=1;" vertex="1" parent="1">
                    <mxGeometry x="2150" y="350" width="120" height="60" as="geometry"/>
                </mxCell>
                <mxCell id="49" value="quit" style="edgeStyle=none;html=1;entryX=0.423;entryY=1.16;entryDx=0;entryDy=0;entryPerimeter=0;" edge="1" parent="1" source="46" target="43">
                    <mxGeometry relative="1" as="geometry">
                        <mxPoint x="2070" y="530" as="targetPoint"/>
                    </mxGeometry>
                </mxCell>
                <mxCell id="46" value="consult page" style="whiteSpace=wrap;html=1;rounded=1;" vertex="1" parent="1">
                    <mxGeometry x="2150" y="490" width="120" height="60" as="geometry"/>
                </mxCell>
                <mxCell id="52" value="click message" style="edgeStyle=none;html=1;" edge="1" parent="1" source="50" target="51">
                    <mxGeometry relative="1" as="geometry"/>
                </mxCell>
                <mxCell id="50" value="homepage" style="rounded=1;whiteSpace=wrap;html=1;" vertex="1" parent="1">
                    <mxGeometry x="1020" y="250" width="120" height="60" as="geometry"/>
                </mxCell>
                <mxCell id="54" value="select anyone" style="edgeStyle=none;html=1;" edge="1" parent="1" source="51" target="53">
                    <mxGeometry relative="1" as="geometry"/>
                </mxCell>
                <mxCell id="66" value="quit" style="edgeStyle=none;html=1;entryX=0.817;entryY=0.533;entryDx=0;entryDy=0;entryPerimeter=0;" edge="1" parent="1" source="51" target="65">
                    <mxGeometry relative="1" as="geometry">
                        <Array as="points">
                            <mxPoint x="1290" y="230"/>
                        </Array>
                    </mxGeometry>
                </mxCell>
                <mxCell id="51" value="message list" style="whiteSpace=wrap;html=1;rounded=1;" vertex="1" parent="1">
                    <mxGeometry x="1220" y="250" width="120" height="60" as="geometry"/>
                </mxCell>
                <mxCell id="70" value="quit" style="edgeStyle=none;html=1;entryX=0.795;entryY=0.002;entryDx=0;entryDy=0;entryPerimeter=0;" edge="1" parent="1" target="51">
                    <mxGeometry relative="1" as="geometry">
                        <mxPoint x="1464.9" y="250" as="sourcePoint"/>
                        <mxPoint x="1220" y="210" as="targetPoint"/>
                        <Array as="points">
                            <mxPoint x="1484.9" y="230"/>
                            <mxPoint x="1494.9" y="210"/>
                            <mxPoint x="1330" y="210"/>
                        </Array>
                    </mxGeometry>
                </mxCell>
                <mxCell id="53" value="consult page" style="whiteSpace=wrap;html=1;rounded=1;" vertex="1" parent="1">
                    <mxGeometry x="1420" y="250" width="120" height="60" as="geometry"/>
                </mxCell>
                <mxCell id="72" value="click repairing information" style="edgeStyle=none;html=1;" edge="1" parent="1" source="63" target="71">
                    <mxGeometry relative="1" as="geometry"/>
                </mxCell>
                <mxCell id="63" value="" style="shape=waypoint;sketch=0;size=6;pointerEvents=1;points=[];fillColor=default;resizable=0;rotatable=0;perimeter=centerPerimeter;snapToPoint=1;rounded=1;" vertex="1" parent="1">
                    <mxGeometry x="1100" y="300" width="20" height="20" as="geometry"/>
                </mxCell>
                <mxCell id="65" value="" style="shape=waypoint;sketch=0;size=6;pointerEvents=1;points=[];fillColor=default;resizable=0;rotatable=0;perimeter=centerPerimeter;snapToPoint=1;rounded=1;" vertex="1" parent="1">
                    <mxGeometry x="1090" y="240" width="20" height="20" as="geometry"/>
                </mxCell>
                <mxCell id="74" value="select special info" style="edgeStyle=none;html=1;" edge="1" parent="1" source="71" target="73">
                    <mxGeometry relative="1" as="geometry"/>
                </mxCell>
                <mxCell id="79" value="quit" style="edgeStyle=none;html=1;entryX=0.022;entryY=0.922;entryDx=0;entryDy=0;entryPerimeter=0;" edge="1" parent="1" source="71" target="50">
                    <mxGeometry relative="1" as="geometry">
                        <mxPoint x="960" y="410" as="targetPoint"/>
                        <Array as="points">
                            <mxPoint x="1000" y="410"/>
                            <mxPoint x="1000" y="390"/>
                            <mxPoint x="1010" y="330"/>
                        </Array>
                    </mxGeometry>
                </mxCell>
                <mxCell id="71" value="own information page" style="whiteSpace=wrap;html=1;sketch=0;pointerEvents=1;resizable=0;rounded=1;" vertex="1" parent="1">
                    <mxGeometry x="1040" y="380" width="120" height="60" as="geometry"/>
                </mxCell>
                <mxCell id="76" value="quit" style="edgeStyle=none;html=1;entryX=0.467;entryY=0.95;entryDx=0;entryDy=0;entryPerimeter=0;" edge="1" parent="1" target="71">
                    <mxGeometry relative="1" as="geometry">
                        <mxPoint x="1366.9228571428573" y="440" as="sourcePoint"/>
                        <mxPoint x="1050" y="450" as="targetPoint"/>
                        <Array as="points">
                            <mxPoint x="1369.78" y="480"/>
                            <mxPoint x="1229.78" y="480"/>
                            <mxPoint x="1100" y="490"/>
                            <mxPoint x="1040" y="480"/>
                            <mxPoint x="1030" y="470"/>
                            <mxPoint x="1040" y="460"/>
                        </Array>
                    </mxGeometry>
                </mxCell>
                <mxCell id="73" value="its page" style="whiteSpace=wrap;html=1;sketch=0;pointerEvents=1;resizable=0;rounded=1;" vertex="1" parent="1">
                    <mxGeometry x="1275" y="380" width="120" height="60" as="geometry"/>
                </mxCell>
            </root>
        </mxGraphModel>
    </diagram>
</mxfile>